<svg width="123" height="32" viewBox="0 0 123 32" fill="none" xmlns="http://www.w3.org/2000/svg">
<g clip-path="url(#clip0_1_42)">
<path d="M81.9438 0.602081C83.2428 0.602081 84.32 1.67931 84.32 2.97832V26.3288L67.021 0.316933H63.3775H61.1596V0.602081C62.4587 0.602081 63.5359 1.64763 63.5359 2.97832V29.0219C63.5359 30.3209 62.4903 31.3981 61.1596 31.3981H63.5359H61.1596V31.6833H66.5458V31.3981C65.2468 31.3981 64.1695 30.3526 64.1695 29.0219V1.20406L84.32 32.0318H84.9537V2.97832C84.9537 1.67931 85.9993 0.602081 87.3299 0.602081H84.9537H87.3299V0.316933H81.9438V0.602081Z" fill="#210803"/>
<path d="M21.3861 0.348517V0.633665V7.28713H21.2911H21.101H21.0376C21.0376 3.61188 18.0911 0.633665 14.4475 0.601982H7.85743C6.55842 0.601982 5.48119 1.64753 5.48119 2.97822V0.601982V15.1762H10.0752C11.9446 15.1762 13.497 13.6554 13.497 11.7545H13.7822V15.1762V15.7782V19.0416H13.497V18.8832C13.497 17.204 12.1663 15.8416 10.5188 15.7782H5.44951V29.0535C5.44951 30.3525 6.49505 31.4297 7.82575 31.4297H5.44951H14.6693C18.3762 31.398 21.3861 28.4198 21.3861 24.7129V24.0792H21.703V31.398V31.6515V31.5881H0.0316851V31.3663C1.33069 31.3663 2.40792 30.3208 2.40792 28.9901V2.97822C2.40792 1.67921 1.36238 0.601982 0.0316851 0.601982H2.37624H2.45869e-06V0.316833H21.101L21.3861 0.348517Z" fill="#210803"/>
<path d="M118.601 29.2119L105.896 0H105.263L92.7478 29.0851C92.2408 30.3842 90.6884 31.398 89.3894 31.398V31.6832H94.7755V31.398C93.4765 31.398 92.5894 30.9545 93.4131 29.0851L92.4309 31.398L96.8983 20.9743H111.409L114.831 29.0218C115.75 30.9228 114.071 31.398 112.772 31.398H115.845H116.637H119.52H112.803V31.6832H121.865V31.398C120.851 31.398 119.425 30.3842 118.601 29.2119ZM97.1517 20.3723L104.185 4.02376L111.156 20.3723H97.1517Z" fill="#210803"/>
<path d="M40.6495 0.316833C40.3644 0.316833 40.0475 0.316834 39.7624 0.348517H28.2297V0.633665C29.5287 0.633665 30.6059 1.67921 30.6059 3.0099V0.601982V29.0535C30.6059 30.3525 29.5604 31.4297 28.2297 31.4297H30.6059H28.2297V31.6515H39.2238C39.5089 31.6515 40.3644 31.6515 40.6495 31.6515C49.6475 31.6515 56.9347 28.103 56.9347 16C56.9347 5.00594 49.6475 0.316833 40.6495 0.316833ZM40.0792 31.4297C39.9842 31.4297 39.3505 31.4297 39.2554 31.4297H36.0871C34.7881 31.4297 33.7109 30.3842 33.7109 29.0535V2.97822C33.7109 1.67921 34.7564 0.601982 36.0871 0.601982H33.7109H39.7941C39.8891 0.601982 39.9842 0.601982 40.0792 0.601982C47.5881 0.601982 53.6713 3.35842 53.6713 16C53.6396 28.6733 47.5564 31.4297 40.0792 31.4297Z" fill="#210803"/>
</g>
<defs>
<clipPath id="clip0_1_42">
<rect width="122.378" height="32" fill="white"/>
</clipPath>
</defs>
</svg>
