<svg width="123" height="32" fill="none" xmlns="http://www.w3.org/2000/svg"><g clip-path="url(#a)" fill="#210803"><path d="M81.944.602a2.394 2.394 0 0 1 2.376 2.376v23.35L67.021.318H61.16v.285a2.373 2.373 0 0 1 2.376 2.376v26.044a2.373 2.373 0 0 1-2.376 2.376h2.376-2.376v.285h5.386v-.285a2.373 2.373 0 0 1-2.377-2.376V1.204L84.32 32.032h.634V2.978A2.373 2.373 0 0 1 87.33.602h-2.376 2.376V.317h-5.386v.285ZM21.386.349v6.938h-.348c0-3.675-2.947-6.653-6.59-6.685h-6.59A2.373 2.373 0 0 0 5.48 2.978V.602v14.574h4.594c1.87 0 3.422-1.52 3.422-3.421h.285v7.286h-.285v-.159a3.107 3.107 0 0 0-2.978-3.105h-5.07v13.275a2.373 2.373 0 0 0 2.377 2.377H5.45h9.22c3.706-.032 6.716-3.01 6.716-6.717v-.634h.317v7.572-.063H.032v-.222a2.373 2.373 0 0 0 2.376-2.376V2.978A2.373 2.373 0 0 0 .032.602h2.344H0V.317h21.101l.285.032Zm97.215 28.863L105.896 0h-.633L92.748 29.085c-.507 1.3-2.06 2.313-3.359 2.313v.285h5.386v-.285c-1.299 0-2.186-.444-1.362-2.313l-.982 2.313 4.467-10.424h14.511l3.422 8.048c.919 1.9-.76 2.376-2.059 2.376h6.748-6.717v.285h9.062v-.285c-1.014 0-2.44-1.014-3.264-2.186Zm-21.45-8.84 7.034-16.348 6.971 16.348H97.152ZM40.65.317c-.286 0-.602 0-.888.032H28.23v.285a2.373 2.373 0 0 1 2.376 2.376V.602v28.451a2.373 2.373 0 0 1-2.376 2.377h2.376-2.376v.221h12.42c8.998 0 16.285-3.548 16.285-15.651C56.935 5.006 49.647.317 40.65.317Zm-.57 31.113h-3.994a2.373 2.373 0 0 1-2.376-2.377V2.979A2.373 2.373 0 0 1 36.087.602h-2.376 6.368C47.59.602 53.671 3.358 53.671 16c-.031 12.673-6.115 15.43-13.592 15.43Z"/></g><defs><clipPath id="a"><path fill="#fff" d="M0 0h122.378v32H0z"/></clipPath></defs></svg>